<?xml version="1.0" encoding="utf-8"?>
<!-- Generator: Adobe Illustrator 24.0.2, SVG Export Plug-In . SVG Version: 6.00 Build 0)  -->
<svg version="1.1" id="Layer_1" xmlns="http://www.w3.org/2000/svg" xmlns:xlink="http://www.w3.org/1999/xlink" x="0px" y="0px"
	 viewBox="0 0 1251.9 540.3" style="enable-background:new 0 0 1251.9 540.3;" xml:space="preserve">
<style type="text/css">
	.st0{fill:#010101;}
	.st1{fill:#F4D00F;}
	.st2{fill:#020201;}
	.st3{fill:#F4D00D;}
</style>
<g>
	<path class="st0" d="M136.4,131.7c-13.3,13.5-21.9,31.2-33.4,46.3c-2,2.9-3,3.4-5.4-0.1c-10-14.2-20.5-28.1-30.8-42.2
		c-1.1-1.5-2.4-3.5-4.2-2.9c-1.9,0.6-1.6,3-1.5,4.8c0.9,12.4-0.8,24.8-0.7,37.2c0,2.5-1.2,3.2-3.4,3.2c-9.6,0-19.3-0.1-28.9-0.1
		c-2.5,0-3.5-0.8-3.6-3.4c-1.9-50.3-1.4-101.2-8.3-150.9c-0.8-2.3,0.4-4,3.1-3.8c16.2,1.1,32.5,0.8,48.6,0.2
		c6.1-0.2,6.9,2.5,8.5,6.5c2.2,4.2,22.6,57.6,27.5,42c8.4-14.3,16.7-28.6,22.5-44.1c1.1-2.9,2.7-4.1,6-4.1
		c14.6,0.1,29.2,0.1,43.7-0.1c3.6,0,4.4,1.2,4.2,4.7c-1.7,34.8-3.5,69.7-4.5,104.5c-1.2,14.9-1.4,29.8-1.7,44.8
		c-0.1,3.3-1.1,4.4-4.9,4.1C123.6,176.8,143.1,185.7,136.4,131.7z"/>
	<path class="st0" d="M362.1,488.9c0.2,11-0.3,20.7-1.1,31.3c0.3,2-1.2,2.4-2.9,2.4c-16.8,0-33.5,0.1-50.3,0.1
		c-5.7,1.9-4.1-28-4.6-32.3c0.5-15.2-2.4-30.1-2.3-45.3c0.1-10.4,0.8-21-0.9-31.3c-2.3-14.1,0.5-28.6-2.8-42.6c-1.4-6.1-1-6.2,5-6.9
		c17.7-1.8,35.7-5.3,53.4-3.7c27.9,1.8,64.2,9.3,73.8,39.4c9.9,26.5,1.2,59.8-25.4,72.5c-4.4,2.2-4.6,4.1-1.8,7.2
		c33.2,44,42.5,23-5.9,48.9c-3.2,1.8-4.9,1.6-7.2-1.6c-7.9-11-15.7-22.1-22.2-34C366,491.5,365,489.7,362.1,488.9z M369,428.5
		c-4.1-1.4-4.7,1.4-4.7,5.1c-0.1,9-0.4,17.9-0.8,26.9c-0.1,2.7,1.3,3.1,3.3,3.3C390.4,463.7,396.4,429.6,369,428.5z"/>
	<path class="st0" d="M569.1,416.8c1,18.1-7.6,36.5-23.4,45.4c-2.8,1.3-2.7,2.4-0.5,4.2c31.9,29.5,0.7,57.5-33.6,59.1
		c-11.6,0.4-23.9,4.4-35,0c-2.7-1.6-5.9-0.1-8.8-0.1c-6.2-0.1-12-2.2-18.1-2.7c-3.5-0.3-3.5-2.6-3.8-5.3c-2.2-33-1-66.3-3.9-99.1
		c-2-13.4-1.7-26.7-2.1-40.1c0.4-5.2-5.8-12,2.2-13.9C486.2,356.9,570.4,353,569.1,416.8z M507,431c0.4,4.9-2.6,16.8,0.1,18.8
		c7.9,3.9,20.7-3.7,20.9-12.4c0.2-8.6-4.6-14-14-15.7C506.4,419.4,506.8,425.8,507,431z M509.7,473.5c-4.6-1.1-6,1.5-5.4,6.6
		c1.1,5.8-3.9,15.9,5.7,15.4C528.4,495.9,531.1,472.3,509.7,473.5z"/>
	<path class="st0" d="M490.3,87.7c4.2-4.1,4.6-9.4,6.1-13.9c4-12,8.9-23.7,12-36.1c1.3-5.3,3.4-10.4,4.4-15.8
		c0.6-3.4,2.1-4.8,6.2-4.1c14.7,3.1,29.3,6.2,43.7,9.7c3.7,0.7,2.2,11.8,0.6,14.7c-7.1,12.9-13.7,26-20.6,39
		c-6.3,12-12.7,23.9-19.2,35.7c-2,3.6-1.7,5.8,1.1,9.2c10.5,13.1,22.1,25.2,34.6,36.4c3.4,2.2,3.8,5.1-1.1,5.2
		c-12.2,5.5-24.7,10.5-36.4,16.9c-3.6,2.1-5.8,1.3-7.9-1.9c-8.1-12.1-17-23.7-22.8-37.2c-1.9-4.8-6-3.5-4.5,1.4
		c-0.2,9.1-0.3,18.3-0.5,27.4c0,2.8-1,4.1-4.2,4c-71.5-2.3-46.2,14.9-53.2-66.1c-1.5-28.5-2.1-57-5-85.3c-2-7.3-1.9-6.6,5-6.6
		c20.3,0,40.6,0.5,60.8-0.2c3-0.1,3.7,1.6,3.6,4.1C492.6,45.5,488.6,66.7,490.3,87.7z"/>
	<path class="st1" d="M463.1,282.7c-1.4,1.8-3.4,1.1-5.1,1c-12.5-0.4-25.1-0.4-37.6-1.3c-56.8-1.9-113.7-2-170.5-1.8
		c-74.4,0.3-149.9-0.4-222.9,15.1c-6.6,1-2.5-4.2-4.4-7.1c-9-4.8,14.7-20.6,17.9-25.3c5.4-5.1,12.8-7.7,20.1-8.5
		c129-19.3,262.3-15.6,391.6-10.6C454.1,257.1,459.9,269.8,463.1,282.7z"/>
	<path class="st0" d="M286.4,431c5.8,42.2-21.6,98.7-70.5,96.2c-78.3-6.7-90.9-143.4-15.5-164.6C245.5,351.5,285.8,384.3,286.4,431z
		 M237.9,457.3c3.2-19.3-16.6-37.9-32-20.6c-12.8,14.4-1.6,71.4,22.9,48.8C235.4,477,239,467.7,237.9,457.3z"/>
	<path class="st2" d="M463.1,282.7c-3.2-12.8-9-25.5-10.8-38.5c63.7,1.6,127.6,4,191.1,10.7c74.8,8.3,150,11.8,225.2,7.4
		c5.5-2,8.3,3.9,2.6,6.8c-13.4,7.2-25.7,16.2-39.7,22.7c-37.4,15.8-78.7,8.6-118,8.3C630,295.1,546.8,284.7,463.1,282.7z"/>
	<path class="st0" d="M833.1,20.7c15.8,0,31.6,0.2,47.4-0.1c4.3-0.1,5.5,1.3,5.6,5.3c-1,18-2.5,36-4.1,54c-0.2,2.5-1.1,5.1-3.8,3.6
		c-5.7-3.2-11.8-0.8-17.6-1.8c-4.7,0.5-14.4-2.7-14.5,4.3c0.5,4.3-4.5,17.1,3,15.7c42.6,1.6,31.2-8.7,27.8,25.1
		c0.1,2.8-1.2,3.5-3.7,2.9c-8.4-2-16.9-0.7-25.3-1.2c-5.1-0.7-2.7,14.3-4.5,18.2c-0.5,3.3,0.3,4.8,3.7,4.7c11.6-1,23.2,0.9,34.4-1.7
		c6.6-2.8-2.2,15.9-2.1,18.8c-1.5,11.7-1.9,9.6-11.8,9.8c-16.4,0.2-32.8,0-49.2-0.1c-9,0-17.9-0.2-26.9-0.1c-3.6,0-4.7-0.3-4.8-4.9
		c0.5-25.1-2.1-50.1-2.4-75.3c-0.3-10.4-0.1-20.9-1.7-31.3c-1.9-13.1,1.2-26.7-2.4-39.7c-1.6-5.5-0.4-6.5,5.5-6.5
		C801.4,20.8,817.2,20.7,833.1,20.7z"/>
	<path class="st0" d="M832.2,365.5c15.3,0,30.5-0.1,45.8,0c10.3,0.1,10.4,0.1,9.8,10.5c-1.6,16.4-1.9,33.1-4,49.4
		c-0.2,2.3-1.7,4.2-4,2.9c-7.1-3.7-14.9-1.5-22.2-2.2c-9.3,0.3-9.3,0.3-9.7,10.1c-0.4,9.8-0.4,10.1,9.5,10.2
		c34.7,1,25.3-7.4,21.3,25.4c-0.1,2.3-0.8,3.4-3.8,2.7c-3.5-0.8-28.6-3.2-28,1.5c0.6,4.1-4.9,19.8,0.6,19.6c11,0,21.9,0,32.9-0.1
		c1.8,0,3.5-3.5,5.1-1.1c1.3,2,0,4.8-0.8,7.2c-4.4,6.7-0.7,22.2-10.9,21.4c-26.9-0.2-53.8,0-80.7,0c-3.5,0-5-0.7-4.7-5.3
		c0.9-22.8-1.7-45.6-2.3-68.4c-0.4-25.7-0.8-51.4-4-76.9c-1.3-6.6-0.4-7.3,6.3-7.3c14.6,0,29.2,0,43.8,0
		C832.2,365.2,832.2,365.4,832.2,365.5z"/>
	<path class="st0" d="M231.3,20.1c14.2,0,28.3,0,42.5,0c3.4,0,5.2,1.7,5.4,5.2c0.4,7.1,3.2,13.8,4.2,20.8
		c7.4,39.9,17.1,79.4,27,118.9c0.8,3.3,0.7,6.8,2.5,10c1.1,2-0.2,3.8-3,3.6c-15.2-0.9-30.5-0.5-45.7-0.3c-4.5,0.1-6.6-1.6-7.8-5.8
		c-4-13.9-2.9-10.1-12.5-4.5c-20.8,14.5-11.1,16-23.2-6.1c-6.7-10.3-4.1,19.8-13,16.3c-36-1-22,5.4-14.1-39.8
		c8.3-28.7,12.9-58.1,19.2-87.3c2.3-9.3,2.7-19,5.3-28.2c2-5.2,9.2-1.6,13.5-2.6C231.3,20.2,231.3,20.1,231.3,20.1z M226.3,148.6
		c7.3-0.1,13.2-2.3,19.4-3.3c2.4-0.4,3.7-1.9,2.5-4.8c-3.8-9.5-7.5-19.1-11.1-28.6c-0.4-0.9-0.6-2.1-1.7-2.2
		c-1.5-0.1-1.7,1.3-2.1,2.4c-3.1,10.2-7.5,20-10.1,30.5C221.7,148.3,221.5,148.5,226.3,148.6z"/>
	<path class="st0" d="M85.6,364.3c75.7,4.3,57.7-21.6,56.7,56.1c0.6,3.9,1.5,10.7-4.6,6.9c-5-1.9-10.5-1.1-15.7-1.1
		c-10.9,0-10.9,0-10.9,10.7c-2.9,22.7-3.1,45.9-4.2,68.9c-0.9,4.2,2.3,18.2-3.9,17.4c-14.4-0.3-28.8-0.5-43.2,0.2
		c-3.4,0.2-4.1-1.8-4.2-4.7c-0.1-11.8,1.1-23.7-0.9-35.4c-1.8-18-0.9-35.9-3.3-53.8c0.1-1.7-0.5-3.8-3.5-3.6
		c-6.1,0.4-12.3,0.5-18.4,0.6c-4.8,0.2-9.8,6.3-9.6-2.5c-0.2-13.6,0.5-27.3-1.1-40.8c0.4-4.9-4.9-19.3,2.9-18.8
		C40.8,364.3,59.9,364.3,85.6,364.3z"/>
	<path class="st0" d="M658,444.5c-3.1-41.1,27.1-78.7,68.5-82.4c13.8-2.2,26.8-1.4,40.3,0.5c1.8-0.3,2.7,1.7,2.9,3.5
		c2,18.2,0.9,36.5,3.3,54.6c0.8,5.1,0.2,5.3-5.1,5.3c-57.9-8.7-62.3,68.2-16.5,69.6c22.4,2.4,22.6-16.2,15.9,20.3
		c-2.1,7.8-3.7,9.1-11.7,9.4c-6.7,0.2-13,3.1-20,2.4C692.6,525.6,656.7,487.9,658,444.5z"/>
	<path class="st0" d="M769.2,52.1c0.1,8.1,0.2,16.2,1.8,24.3c4.3,11.1-23.1,0.6-34.4,9.3c-29.3,14.1-21.2,67.4,12.6,65.6
		c23.8,0.5,22.4-12.6,16.6,18.4c-1.7,7-0.3,9.8-8.3,10.7c-20.2,4.2-42,2.8-60.1-7.8c-59.8-31.2-54.3-136,14.4-152.1
		c17.3-4.8,34.8-5.2,52.4-2.3C771.1,18.6,768.2,46,769.2,52.1z"/>
	<path class="st0" d="M414,41.6c-0.8,12.8,1.8,25.5,2.3,38.2c0.2,4-0.6,5.3-5.1,4.3c-10.9-4.4-24.2,6.9-19,18.6
		c11.5,21.9,27.4,46.7,4.7,67.6c-13.8,13.4-34.9,13.7-52.5,10.4c-4.3-0.5-4-4.5-4.3-6.9c-1.7-21.6-15.3-25.1,9.5-22.7
		c13.9,1.4,17.5-7.4,13.4-19.6c-13.1-25.9-45-26.5-43.8-68.8c0.6-32.4,29.3-44.3,57.8-46.7c10.9-0.2,21.2,2.8,31.8,4.2
		C417.9,21.8,412.7,35,414,41.6z"/>
	<path class="st2" d="M1045,203.6c4.4,1.2,29.1-3.2,26,3.7c-2.5,21.1-2.1,42.3-4.1,63.5c0,3.8,1,4.9,4.7,4.9
		c15.4,0.1,15,0.2,15.3-15.4c-0.9-17.9-2.8-35.7-3.2-53.6c-0.2-2.7,1.2-3.1,3.3-3.1c13.8,0,27.5,0,41.3,0c8.8,0.6,0.4,29.6,1.4,36.4
		c-0.6,22.2-2.3,44.5-2.1,66.7c-1,4.3,1,13.6-5,13.9c-10.2-0.1-20.3-0.1-30.5,0c-3.9,0-4.3-2.2-4.2-5.2c-1.1-4.9,4.2-24.7-5.6-18.7
		c-9.6,6.4-9.1-3.7-12.5-10.1c-0.5-1.2-0.8-3-2.4-2.8c-2,0.2-1.1,2.1-1.1,3.3c-0.8,46,5.1,30.2-37.3,33.4c-3.9,0.1-5.5-1.1-5.1-5.2
		c-0.9-26.8-2.4-53.6-3.6-80.4C1022.2,200,1004.1,203.4,1045,203.6C1045,203.6,1045,203.6,1045,203.6z"/>
	<path class="st0" d="M1165,320.6c-4.7-1.1-21.7,3.1-21.1-3.7c-1.8-36.5-1.7-73.3-5.5-109.7c0.1-1.9,0-3.3,2.3-3.6
		c14-2,28-5.4,42.2-3.8c23.2,0.9,50.9,9.5,55.6,36.2c4.8,18.4-3.9,39-20.7,47.5c-3,1.5-3.2,2.7-1.1,5.1c6.5,7.3,11.5,15.9,19.2,22.2
		c1.8,1.5,2.5,3.6-0.6,4.4c-7.5,0.4-24.5,16.2-28.5,9.1c-6.3-8.3-11.5-17.4-16.7-26.4c-0.8-1.3-1.5-3.2-3-2.9
		c-1.9,0.5-0.8,2.6-0.8,3.9c-0.1,5.7-0.2,11.3-0.1,17C1187.5,324.3,1170.4,319.3,1165,320.6z M1188.2,273.5
		c-1.7,10.7,18.6-1.4,17.3-9.9c0.3-6.8-6.1-12.7-13.8-12.9C1185.2,248.7,1189.3,269,1188.2,273.5z"/>
	<path class="st0" d="M612.3,522.7c-7.8,0-15.6-0.3-23.4,0.1c-4.3,0.2-4.9-1.5-5-5.2c0.3-28.4-2-56.7-3-85
		c-2.5-21.1-0.1-42.4-3.5-63.4c-0.4-3.1,0.6-4.9,4.1-4.5c8.9,1,17.8,0.2,26.7,0.4c9.3,0.1,18.5-0.2,27.8,0.2
		c11.5-1.9,12.8-0.4,11.1,11.1c0,15.1-2.2,30-2.2,45.1c-1.8,32.7-2,65.3-4,97.9c1.6,6.7-23.7,2.2-28.6,3.4
		C612.3,522.8,612.3,522.8,612.3,522.7z"/>
	<path class="st0" d="M625.5,178.2c-57.8-0.4-36.6,8.2-42.4-44.4c-2.3-36.2-2.2-72.6-5.2-108.7c-0.4-3.5,0.7-4.6,4.3-4.5
		c20.5,0.1,41.1,0.3,61.6-0.1c3.1-0.1,4.2,1.4,4.1,4.2c-0.4,15.4-1.8,30.7-2.3,46c-1.7,34.5-3.2,69-4.6,103.5
		c0.1,7.8-10.7,2.8-15.5,3.7C625.5,178,625.5,178.1,625.5,178.2z"/>
	<path class="st3" d="M951.8,300.6c-0.4-22.6,33.3-27.7,48.5-15.2c10.3,7.5,10.5,22.7,0.5,30.5C985.7,328.7,952.1,324.2,951.8,300.6
		z"/>
</g>
</svg>
